<?xml version="1.0" encoding="UTF-8"?>
<svg xmlns="http://www.w3.org/2000/svg" xmlns:xlink="http://www.w3.org/1999/xlink" width="598.638pt" height="339.76pt" viewBox="0 0 598.638 339.76" version="1.1">
<defs>
<clipPath id="clip1">
  <path d="M 398 68 L 598.636719 68 L 598.636719 250 L 398 250 Z M 398 68 "/>
</clipPath>
<clipPath id="clip2">
  <path d="M 0 131 L 277 131 L 277 339.761719 L 0 339.761719 Z M 0 131 "/>
</clipPath>
</defs>
<g id="surface1">
<g clip-path="url(#clip1)" clip-rule="nonzero">
<path style=" stroke:none;fill-rule:nonzero;fill:rgb(92.498779%,12.199402%,14.898682%);fill-opacity:1;" d="M 505.378906 218.332031 L 447.984375 218.332031 L 447.984375 98.507813 C 447.984375 98.507813 448.519531 98.507813 485.988281 98.507813 C 523.414063 98.507813 559.023438 103.546875 559.023438 162.085938 C 559.023438 220.625 505.378906 218.332031 505.378906 218.332031 M 598.261719 147.898438 C 590.816406 59.46875 498.023438 68.964844 498.023438 68.964844 L 400.539063 68.964844 C 400.539063 68.964844 400.539063 69.476563 400.539063 73.042969 C 406.164063 72.90625 408.53125 78.492188 408.53125 78.492188 L 408.53125 239.167969 C 404.898438 244.652344 398.78125 244.550781 398.78125 244.550781 L 398.78125 249.519531 C 398.78125 249.519531 427.570313 249.519531 499.398438 249.519531 C 605.707031 250.136719 599.132813 164.347656 598.261719 147.898438 "/>
</g>
<path style=" stroke:none;fill-rule:nonzero;fill:rgb(92.498779%,12.199402%,14.898682%);fill-opacity:1;" d="M 228.53125 217.097656 L 228.53125 168.597656 L 308.648438 168.597656 C 308.648438 168.597656 332.246094 167.125 332.246094 191.597656 C 332.246094 216.070313 314.898438 216.375 300.851563 216.375 Z M 228.53125 140.324219 L 228.53125 97.242188 L 305.351563 97.242188 C 305.351563 97.242188 327.949219 95.9375 327.949219 117.667969 C 327.949219 139.394531 311.320313 139.671875 297.816406 139.671875 Z M 279.679688 68.964844 L 182.242188 68.964844 C 182.242188 68.964844 182.242188 69.476563 182.242188 73.046875 C 187.828125 72.90625 190.195313 78.496094 190.195313 78.496094 L 190.191406 237.488281 C 186.59375 242.972656 180.441406 242.871094 180.441406 242.871094 L 180.441406 247.875 C 180.441406 247.875 244.535156 247.875 316.398438 247.875 C 316.398438 247.875 371.578125 244.890625 371.578125 198.832031 C 371.578125 198.832031 375.636719 167.230469 343.691406 153.859375 C 352.035156 147.074219 369 138.230469 366.105469 108.378906 C 366.105469 92.164063 348.585938 68.550781 313.222656 68.550781 C 277.878906 68.550781 279.679688 68.964844 279.679688 68.964844 "/>
<g clip-path="url(#clip2)" clip-rule="nonzero">
<path style=" stroke:none;fill-rule:nonzero;fill:rgb(7.798767%,65.098572%,28.999329%);fill-opacity:1;" d="M 2.363281 131.777344 C 2.363281 131.777344 6.050781 226.351563 66.640625 271.386719 C 101.851563 295.542969 149.007813 327.476563 276.09375 332.390625 L 272.578125 339.757813 C 272.578125 339.757813 -29.570313 342.214844 2.363281 131.777344 "/>
</g>
<path style=" stroke:none;fill-rule:nonzero;fill:rgb(7.798767%,65.098572%,28.999329%);fill-opacity:1;" d="M 104.835938 285.929688 C 104.835938 285.929688 101.570313 244.339844 44.296875 230.617188 C 67.816406 249.128906 68.6875 254.792969 68.6875 254.792969 C 68.6875 254.792969 43.425781 240.855469 39.722656 240.855469 C 36.023438 240.855469 71.300781 279.617188 104.835938 285.929688 "/>
<path style=" stroke:none;fill-rule:nonzero;fill:rgb(7.798767%,65.098572%,28.999329%);fill-opacity:1;" d="M 86.761719 232.578125 C 86.761719 232.578125 105.269531 202.746094 88.9375 147.433594 C 86.21875 150.15625 83.496094 176.179688 83.496094 188.589844 C 79.792969 164.199219 77.832031 160.71875 73.042969 159.191406 C 69.773438 171.171875 75.003906 234.972656 86.761719 232.578125 "/>
<path style=" stroke:none;fill-rule:nonzero;fill:rgb(7.798767%,65.098572%,28.999329%);fill-opacity:1;" d="M 74.347656 232.644531 C 74.347656 232.644531 62.542969 194.019531 31.449219 172.257813 C 38.417969 188.808594 39.457031 193.601563 39.457031 193.601563 C 39.457031 193.601563 29.054688 175.308594 13.375 166.160156 C 22.519531 194.472656 54.316406 232.644531 74.347656 232.644531 "/>
<path style=" stroke:none;fill-rule:nonzero;fill:rgb(7.798767%,65.098572%,28.999329%);fill-opacity:1;" d="M 58.460938 185.234375 C 58.460938 185.234375 69.792969 143.515625 35.792969 118.4375 C 35.792969 135.558594 42.304688 149.0625 42.304688 149.0625 C 42.304688 149.0625 32.417969 142.3125 30.488281 127.84375 C 29.28125 143.757813 43.988281 181.15625 58.460938 185.234375 "/>
<path style=" stroke:none;fill-rule:nonzero;fill:rgb(7.798767%,65.098572%,28.999329%);fill-opacity:1;" d="M 70.035156 153.886719 C 70.035156 153.886719 86.675781 123.742188 81.371094 96.011719 C 81.371094 96.011719 73.160156 103.777344 73.160156 113.5 C 72.03125 113.5 72.054688 101.289063 76.222656 92.019531 C 73.613281 92.019531 51.3125 116.71875 70.035156 153.886719 "/>
<path style=" stroke:none;fill-rule:nonzero;fill:rgb(7.798767%,65.098572%,28.999329%);fill-opacity:1;" d="M 45.347656 118.4375 C 45.347656 118.4375 69.707031 102.421875 62.613281 59.011719 C 58.011719 61.722656 52.921875 74.160156 52.921875 79.359375 C 51.265625 70.78125 53.714844 64.890625 53.714844 61.046875 C 53.714844 59.765625 34.265625 80.871094 45.347656 118.4375 "/>
<path style=" stroke:none;fill-rule:nonzero;fill:rgb(7.798767%,65.098572%,28.999329%);fill-opacity:1;" d="M 65.699219 78.679688 C 65.699219 78.679688 99.839844 64.890625 99.839844 30.296875 C 94.867188 35.269531 91.246094 41.375 91.246094 41.375 C 91.246094 41.375 90.34375 37.984375 92.378906 28.941406 C 89.324219 31.992188 68.296875 39.550781 65.699219 78.679688 "/>
<path style=" stroke:none;fill-rule:nonzero;fill:rgb(7.798767%,65.098572%,28.999329%);fill-opacity:1;" d="M 80.621094 90.4375 C 80.621094 90.4375 117.25 84.105469 128.101563 56.070313 C 125.050781 59.125 116.230469 60.933594 112.5 64.664063 C 123.128906 51.097656 126.519531 48.15625 126.519531 48.15625 C 126.519531 48.15625 87.40625 54.714844 80.621094 90.4375 "/>
<path style=" stroke:none;fill-rule:nonzero;fill:rgb(7.798767%,65.098572%,28.999329%);fill-opacity:1;" d="M 105.492188 36.175781 C 105.492188 36.175781 124.257813 9.269531 150.03125 5.878906 L 143.476563 12.433594 C 143.476563 12.433594 148.789063 14.582031 157.492188 5.878906 C 154.554688 17.183594 139.632813 31.878906 105.492188 36.175781 "/>
<path style=" stroke:none;fill-rule:nonzero;fill:rgb(7.798767%,65.098572%,28.999329%);fill-opacity:1;" d="M 124.710938 42.28125 C 124.710938 42.28125 148.222656 18.089844 180.441406 21.027344 C 166.765625 26 166.3125 27.132813 166.3125 27.132813 C 166.3125 27.132813 170.609375 27.585938 177.617188 27.585938 C 173.660156 31.539063 150.253906 46.042969 124.710938 42.28125 "/>
<path style=" stroke:none;fill-rule:nonzero;fill:rgb(7.798767%,65.098572%,28.999329%);fill-opacity:1;" d="M 162.921875 14.46875 C 162.921875 14.46875 176.714844 0 206.785156 0 C 206.785156 1.808594 197.738281 7.234375 192.085938 7.234375 C 200.90625 7.234375 209.835938 6.894531 212.660156 4.070313 C 212.660156 4.070313 211.53125 16.730469 175.355469 16.730469 C 160.207031 16.730469 162.921875 14.46875 162.921875 14.46875 "/>
<path style=" stroke:none;fill-rule:nonzero;fill:rgb(7.798767%,65.098572%,28.999329%);fill-opacity:1;" d="M 174 38.660156 C 174 38.660156 183.042969 27.808594 210.175781 27.808594 C 209.042969 30.75 205.652344 31.839844 205.652344 31.839844 C 205.652344 31.839844 218.992188 30.214844 223.0625 31.839844 C 223.0625 34.140625 209.195313 45.773438 174 38.660156 "/>
<path style=" stroke:none;fill-rule:nonzero;fill:rgb(7.798767%,65.098572%,28.999329%);fill-opacity:1;" d="M 201.582031 22.609375 C 201.582031 22.609375 209.949219 8.363281 240.925781 8.363281 C 240.925781 9.949219 234.367188 13.339844 234.367188 13.339844 C 234.367188 13.339844 245.671875 14.921875 253.359375 11.078125 C 244.316406 20.121094 236.175781 25.320313 201.582031 22.609375 "/>
<path style=" stroke:none;fill-rule:nonzero;fill:rgb(7.798767%,65.098572%,28.999329%);fill-opacity:1;" d="M 103.09375 194.183594 C 103.09375 194.183594 118.898438 314.371094 248.371094 297.558594 L 248.371094 304.335938 C 248.371094 304.335938 99.078125 318.136719 103.09375 194.183594 "/>
<path style=" stroke:none;fill-rule:nonzero;fill:rgb(7.798767%,65.098572%,28.999329%);fill-opacity:1;" d="M 284.253906 298.0625 L 284.253906 306.089844 L 270.953125 312.113281 L 285.257813 312.113281 L 285.257813 318.136719 C 285.257813 318.136719 278.734375 321.144531 281.492188 323.90625 C 284.253906 326.664063 278.105469 327.167969 278.105469 327.167969 C 278.105469 327.167969 144.207031 332.4375 83.878906 236.839844 C 92.804688 240.351563 109.363281 252.898438 117.644531 265.191406 C 125.925781 277.488281 133.164063 276.242188 134.871094 274.535156 C 137.894531 277.5625 178.867188 303.492188 192.667969 304.792969 C 206.46875 306.089844 244.859375 310.609375 253.640625 307.597656 C 262.421875 304.585938 284.253906 298.0625 284.253906 298.0625 "/>
</g>
</svg>
